<svg width="682" height="151" viewBox="0 0 682 151" fill="none" xmlns="http://www.w3.org/2000/svg">
<path d="M591.504 47.0896C591.151 47.0703 590.798 47.0579 590.438 47.0579C590.079 47.0579 589.725 47.0703 589.372 47.0896C581.781 47.5257 575.433 52.5685 573.066 59.4664C572.427 61.3338 572.073 63.335 572.073 65.4228C572.073 67.5195 572.433 69.5337 573.079 71.4107C575.249 77.7039 580.747 82.4477 587.47 83.5422C588.437 83.7017 589.43 83.7842 590.438 83.7842H603.983H605.624C608.602 84.1848 610.9 86.7369 610.9 89.8232C610.9 92.865 608.673 95.3848 605.761 95.8428H603.843H587.39H579.022L572.216 108.217H604.04C604.295 108.23 604.549 108.239 604.804 108.239C605.058 108.239 605.309 108.23 605.564 108.217C613.296 107.905 619.792 102.83 622.214 95.8428C622.869 93.9528 623.229 91.9232 623.229 89.8105C623.229 87.6975 622.869 85.6744 622.217 83.7845C620.028 77.4588 614.495 72.6994 607.727 71.6177C607.088 71.5156 606.442 71.446 605.783 71.4109C605.459 71.3916 605.131 71.382 604.803 71.382C604.472 71.382 604.148 71.3916 603.82 71.4109H591.526H589.346C586.514 70.8956 584.36 68.4169 584.36 65.4322C584.36 62.4638 586.492 59.9945 589.311 59.4667H591.564H607.807H616.181L622.986 47.0898H591.504V47.0896Z" fill="#333333"/>
<path d="M246.62 47.0955H260.712V94.9036H295.203V108.2H246.62V47.0955H246.62Z" fill="#333333"/>
<path d="M390.471 47.1402L385.918 55.1959L397.4 78.0565L413.855 47.1402H428.723L397.4 108.153L366.83 47.1402H390.471Z" fill="#333333"/>
<path d="M535.083 76.0936C536.747 76.0936 538.179 75.4004 539.381 73.8219C540.584 72.2471 541.185 70.2299 541.185 67.7642C541.185 65.2443 540.498 63.2398 539.123 61.7471C537.749 60.2615 536.257 59.514 534.656 59.514H517.135V76.1861V88.4768V108.153H503.04V47.1402H535.601C538.465 47.1402 541.112 47.7416 543.549 48.9438C545.984 50.1465 548.09 51.725 549.865 53.6719C551.64 55.6193 553.031 57.8239 554.033 60.2869C555.035 62.7524 555.538 65.2441 555.538 67.7639C555.538 69.6539 555.306 71.4735 554.851 73.2235C554.393 74.9674 553.734 76.6153 552.872 78.1616C552.013 79.708 550.969 81.0981 549.738 82.3299C548.503 83.5643 547.116 84.6077 545.57 85.4667L558.974 108.153H543.078L523.253 76.0936H535.083V76.0936Z" fill="#333333"/>
<path d="M354.215 95.7791V108.153H311.333V47.1402H353.441V59.5137H325.425V71.3721H349.488V82.8039H325.425V95.7788H354.215V95.7791Z" fill="#333333"/>
<path d="M485.852 95.7791V108.153H442.973V47.1402H485.079V59.5137H457.068V71.3721H481.128V82.8039H457.068V95.7788H485.852V95.7791Z" fill="#333333"/>
<path d="M681.133 95.7801V108.154H638.25V47.1412H680.36V59.5147H652.345V71.3731H676.405V82.8048H652.345V95.7798H681.133V95.7801Z" fill="#333333"/>
<path d="M205.718 95.7259C195.734 95.7259 187.641 87.6317 187.641 77.6505C187.641 67.6663 195.734 59.5751 205.718 59.5751C210.848 59.5751 215.47 61.7196 218.76 65.153L228.015 55.8971C222.355 50.0971 214.463 46.4825 205.718 46.4825C188.505 46.4825 174.552 60.4374 174.552 77.6505C174.552 94.8603 188.505 108.815 205.718 108.815C214.404 108.815 222.252 105.255 227.904 99.5246L218.648 90.2659C215.366 93.6325 210.79 95.7259 205.718 95.7259Z" fill="#333333"/>
<path d="M0 0L43.6188 75.5573L76.3291 18.8837H98.1377L54.5227 94.3332L87.2294 151L119.945 94.5064L174.533 0H152.659L98.1624 94.458L87.22 113.288L76.3221 94.3769L119.948 18.8013L130.845 0H65.4149L43.6093 37.6631L32.7144 18.8427L43.6121 0H0Z" fill="#333333"/>
</svg>