<?xml version="1.0" encoding="UTF-8" standalone="no"?>
<!DOCTYPE svg PUBLIC "-//W3C//DTD SVG 1.1//EN" "http://www.w3.org/Graphics/SVG/1.1/DTD/svg11.dtd">
<svg width="100%" height="100%" viewBox="0 0 200 200" version="1.1" xmlns="http://www.w3.org/2000/svg" xmlns:xlink="http://www.w3.org/1999/xlink" xml:space="preserve" xmlns:serif="http://www.serif.com/" style="fill-rule:evenodd;clip-rule:evenodd;stroke-linecap:round;stroke-linejoin:round;stroke-miterlimit:1.5;">
    <rect x="0" y="0" width="200" height="200" style="fill:none;"/>
    <g transform="matrix(0.875,0,0,0.875,11.625,11.625)">
        <path d="M101,101L141,31.718L61,31.718L21,101L61,170.282L141,170.282" style="fill:white;"/>
    </g>
    <g transform="matrix(-0.4375,0.757772,-0.757772,-0.4375,220.722,67.6525)">
        <path d="M101,101L141,31.718L61,31.718L21,101L61,170.282L141,170.282" style="fill:rgb(251,207,232);stroke:rgb(229,231,235);stroke-width:18.29px;"/>
    </g>
    <g transform="matrix(0.875,0,0,0.875,11.625,11.625)">
        <path d="M101,101L141,31.718L61,31.718L21,101L61,170.282L141,170.282" style="fill:none;stroke:rgb(17,24,39);stroke-width:18.29px;"/>
    </g>
</svg>
