<svg id="Layer_1" data-name="Layer 1" xmlns="http://www.w3.org/2000/svg" viewBox="0 0 296.47 129.01"><defs><style>.cls-1{fill:#cd4a9b;}.cls-2{fill:#fff200;}.cls-3{fill:#00aeef;}</style></defs><title>logo</title><path class="cls-1" d="M33.17,41.7a3.24,3.24,0,0,1-3,3H22.24V89.58c0,3,3,4.52,4.52,4.52a3.49,3.49,0,0,1,3.15,3.14,3.37,3.37,0,0,1-3.15,3A10.47,10.47,0,0,1,16,89.58V44.72H8.29c-3,0-3-1.51-3-3s0-3,3-3H16V15.82a3.25,3.25,0,0,1,3-3,3.39,3.39,0,0,1,3.27,3V38.69h7.92A3.23,3.23,0,0,1,33.17,41.7Z"/><path class="cls-1" d="M42.72,87.64A3,3,0,0,1,47,87.26c4.28,3.14,11.06,7.16,18.85,7.16a18.53,18.53,0,0,0,11.69-3.77c3-2,4.65-4.77,4.65-7.54s-1.26-4.9-4.4-7.53c-2.64-2-7-3.52-13.07-4.53l-.25-.12c-5.53-1-10.43-2.27-13.95-4.78a12.86,12.86,0,0,1-6.66-11.06c0-4.9,2.77-9.17,6.66-12.06,3.65-2.51,8.8-4.15,15.08-4.15,7.92,0,13.57,3.65,18.35,6.66a3.21,3.21,0,0,1,.88,4.28,3,3,0,0,1-4.15.88c-4.52-3-9-6.16-15.08-6.16-5,0-9.05,1.38-11.69,3.52S50,52.58,50,55.09s1.13,4.28,3.52,6.16c2.76,1.89,6.91,3.39,12.56,4.27h.25a42.75,42.75,0,0,1,15,5,15.36,15.36,0,0,1,6.91,12.56c0,5.16-2.89,9.3-7,12.44a25.06,25.06,0,0,1-15.33,4.91c-9.92-.13-17.71-4.78-22.74-8.8A2.83,2.83,0,0,1,42.72,87.64Z"/><path class="cls-1" d="M122.51,38.69c16.21,0,29.15,14.07,29.15,30.78s-12.94,30.79-29.15,30.79S93.36,86.18,93.36,69.47,106.43,38.69,122.51,38.69Zm0,55.54c12.57,0,23.12-11.06,23.12-24.76s-10.55-24.88-23.12-24.88S99.39,55.78,99.39,69.47,110,94.23,122.51,94.23Z"/><path class="cls-1" d="M185.72,38.85c16.2,0,29.15,14.07,29.15,30.79s-13,30.78-29.15,30.78-29.16-14.07-29.16-30.78S169.63,38.85,185.72,38.85Zm0,55.54c12.56,0,23.12-11.06,23.12-24.75s-10.56-24.88-23.12-24.88-23.13,11.18-23.13,24.88S173.15,94.39,185.72,94.39Z"/><path class="cls-1" d="M221.53,70.74V42a3.08,3.08,0,0,1,6.15,0v8.92A29.17,29.17,0,0,1,251.05,39c16.59,0,29.79,13.7,29.79,30.54s-13.2,30.66-29.79,30.66a28.93,28.93,0,0,1-23.37-12.07v35.19a3.08,3.08,0,0,1-6.15,0Zm6.15-1.25c0,13.57,10.68,24.5,23.37,24.62,13.07-.12,23.63-11,23.63-24.62s-10.56-24.38-23.63-24.38c-12.43,0-22.86,10.3-23.37,23.37Z"/><path class="cls-2" d="M37.08,37.79a3.25,3.25,0,0,1-3,3H26.15V85.67c0,3,3,4.52,4.52,4.52a3.49,3.49,0,0,1,3.15,3.14,3.37,3.37,0,0,1-3.15,3,10.47,10.47,0,0,1-10.8-10.68V40.81H12.2c-3,0-3-1.51-3-3s0-3,3-3h7.67V11.91a3.25,3.25,0,0,1,3-3,3.39,3.39,0,0,1,3.27,3V34.78h7.92A3.24,3.24,0,0,1,37.08,37.79Z"/><path class="cls-2" d="M46.63,83.73a3,3,0,0,1,4.27-.38c4.27,3.14,11.06,7.16,18.85,7.16a18.53,18.53,0,0,0,11.69-3.77c3-2,4.65-4.77,4.65-7.53s-1.26-4.91-4.4-7.54c-2.64-2-7-3.52-13.07-4.53L68.37,67c-5.53-1-10.43-2.26-14-4.78a12.86,12.86,0,0,1-6.66-11.06c0-4.9,2.77-9.17,6.66-12.06C58.07,36.61,63.22,35,69.5,35c7.92,0,13.57,3.65,18.35,6.66a3.22,3.22,0,0,1,.88,4.28,3,3,0,0,1-4.15.88c-4.53-3-9-6.16-15.08-6.16-5,0-9,1.38-11.69,3.52s-3.89,4.52-3.89,7,1.13,4.28,3.52,6.16c2.76,1.89,6.91,3.39,12.56,4.27h.25a42.82,42.82,0,0,1,15,5,15.36,15.36,0,0,1,6.91,12.57c0,5.15-2.89,9.29-7,12.44a25.12,25.12,0,0,1-15.33,4.9C59.82,96.42,52,91.77,47,87.75A2.83,2.83,0,0,1,46.63,83.73Z"/><path class="cls-2" d="M126.42,34.78c16.21,0,29.15,14.07,29.15,30.78s-12.94,30.79-29.15,30.79S97.27,82.27,97.27,65.56,110.34,34.78,126.42,34.78Zm0,55.54c12.57,0,23.12-11.06,23.12-24.76S139,40.68,126.42,40.68,103.3,51.87,103.3,65.56,113.85,90.32,126.42,90.32Z"/><path class="cls-2" d="M189.62,34.94c16.21,0,29.16,14.08,29.16,30.79s-12.95,30.78-29.16,30.78-29.15-14.07-29.15-30.78S173.54,34.94,189.62,34.94Zm0,55.54c12.57,0,23.13-11.06,23.13-24.75s-10.56-24.88-23.13-24.88S166.5,52,166.5,65.73,177.06,90.48,189.62,90.48Z"/><path class="cls-2" d="M225.43,66.83V38.06a3.08,3.08,0,0,1,6.16,0V47A29.15,29.15,0,0,1,255,35c16.59,0,29.79,13.7,29.79,30.54S271.55,96.24,255,96.24a28.91,28.91,0,0,1-23.37-12.07v35.19a3.08,3.08,0,0,1-6.16,0Zm6.16-1.25c0,13.57,10.68,24.5,23.37,24.63,13.07-.13,23.63-11.06,23.63-24.63S268,41.2,255,41.2c-12.44,0-22.87,10.3-23.37,23.37Z"/><path class="cls-3" d="M40.34,34.53a3.25,3.25,0,0,1-3,3H29.41V82.41c0,3,3,4.52,4.52,4.52a3.49,3.49,0,0,1,3.14,3.14,3.36,3.36,0,0,1-3.14,3,10.46,10.46,0,0,1-10.8-10.68V37.55H15.46c-3,0-3-1.51-3-3s0-3,3-3h7.67V8.65a3.24,3.24,0,0,1,3-3,3.39,3.39,0,0,1,3.27,3V31.52h7.91A3.25,3.25,0,0,1,40.34,34.53Z"/><path class="cls-3" d="M49.89,80.47a3,3,0,0,1,4.27-.38c4.27,3.15,11.06,7.17,18.85,7.17A18.61,18.61,0,0,0,84.7,83.49c3-2,4.64-4.78,4.64-7.54s-1.25-4.9-4.39-7.54c-2.64-2-7-3.52-13.07-4.53l-.25-.12C66.1,62.75,61.2,61.5,57.68,59a12.84,12.84,0,0,1-6.66-11c0-4.9,2.76-9.18,6.66-12.07,3.64-2.51,8.79-4.14,15.08-4.14,7.91,0,13.57,3.64,18.34,6.66A3.19,3.19,0,0,1,92,42.65a3,3,0,0,1-4.14.88c-4.53-3-9-6.16-15.08-6.16-5,0-9.05,1.38-11.69,3.52s-3.89,4.52-3.89,7,1.13,4.27,3.51,6.15c2.77,1.89,6.92,3.4,12.57,4.28h.25a42.82,42.82,0,0,1,15,5A15.38,15.38,0,0,1,95.38,76c0,5.15-2.89,9.3-7,12.44A25.12,25.12,0,0,1,73,93.29c-9.93-.13-17.72-4.78-22.74-8.8A2.82,2.82,0,0,1,49.89,80.47Z"/><path class="cls-3" d="M129.68,31.52c16.21,0,29.15,14.07,29.15,30.78s-12.94,30.79-29.15,30.79S100.53,79,100.53,62.3,113.59,31.52,129.68,31.52Zm0,55.54c12.56,0,23.12-11.06,23.12-24.76s-10.56-24.88-23.12-24.88S106.56,48.61,106.56,62.3,117.11,87.06,129.68,87.06Z"/><path class="cls-3" d="M192.88,31.68c16.21,0,29.15,14.08,29.15,30.79s-12.94,30.79-29.15,30.79-29.15-14.08-29.15-30.79S176.8,31.68,192.88,31.68Zm0,55.54c12.57,0,23.12-11,23.12-24.75s-10.55-24.88-23.12-24.88-23.12,11.18-23.12,24.88S180.32,87.22,192.88,87.22Z"/><path class="cls-3" d="M228.69,63.58V34.8a3.08,3.08,0,0,1,6.16,0v8.92a29.14,29.14,0,0,1,23.37-11.93c16.59,0,29.78,13.69,29.78,30.53S274.81,93,258.22,93a28.93,28.93,0,0,1-23.37-12.06V116.1a3.08,3.08,0,0,1-6.16,0Zm6.16-1.26c0,13.57,10.68,24.5,23.37,24.63,13.07-.13,23.63-11.06,23.63-24.63s-10.56-24.38-23.63-24.38c-12.44,0-22.87,10.31-23.37,23.37Z"/></svg>